<mxfile host="app.diagrams.net" modified="2020-09-29T17:54:21.193Z" agent="5.0 (X11)" etag="Fld5B1gkK4p6thFh4RQX" version="13.7.6" type="github">
  <diagram id="gcEh9_CyaGoKQu0xr7bp" name="Page-1">
    <mxGraphModel dx="1377" dy="807" grid="1" gridSize="10" guides="1" tooltips="1" connect="1" arrows="1" fold="1" page="1" pageScale="1" pageWidth="850" pageHeight="1100" math="0" shadow="0">
      <root>
        <mxCell id="0" />
        <mxCell id="1" parent="0" />
        <mxCell id="dCMF38waMmdHfkV4d47o-1" value="&lt;font style=&quot;font-size: 36px&quot; color=&quot;#43B02A&quot;&gt;&lt;b&gt;CJM&lt;/b&gt; Recuperación de Mercancía en Deposito&lt;/font&gt;" style="text;html=1;strokeColor=none;fillColor=none;align=center;verticalAlign=middle;whiteSpace=wrap;rounded=0;" vertex="1" parent="1">
          <mxGeometry x="120" y="340" width="750" height="80" as="geometry" />
        </mxCell>
        <mxCell id="dCMF38waMmdHfkV4d47o-2" value="&lt;font color=&quot;#FFFFFF&quot;&gt;Customer Journey Map&lt;/font&gt;" style="rounded=0;whiteSpace=wrap;html=1;fillColor=#43B02A;strokeColor=none;rotation=-90;" vertex="1" parent="1">
          <mxGeometry x="-169.92" y="689.93" width="599.86" height="20" as="geometry" />
        </mxCell>
        <mxCell id="dCMF38waMmdHfkV4d47o-3" value="" style="rounded=0;whiteSpace=wrap;html=1;strokeColor=none;fillColor=#75787b;opacity=25;" vertex="1" parent="1">
          <mxGeometry x="150" y="400" width="1000" height="20" as="geometry" />
        </mxCell>
        <mxCell id="dCMF38waMmdHfkV4d47o-4" value="" style="rounded=0;whiteSpace=wrap;html=1;strokeColor=none;rotation=-90;fillColor=#B3B3B3;" vertex="1" parent="1">
          <mxGeometry x="-139.92" y="689.93" width="599.86" height="20" as="geometry" />
        </mxCell>
      </root>
    </mxGraphModel>
  </diagram>
</mxfile>
